#tb 0: 1/1
#media_type 0: video
#codec_id 0: rawvideo
#dimensions 0: 468x60
#sar 0: 0/1
0,          0,          0,        1,   112320, 0xb8afe429
0,          1,          1,        1,   112320, 0xae588a4b
0,          3,          3,        1,   112320, 0xccdd27b7
